<?xml version="1.0" standalone="no"?>
<!DOCTYPE svg PUBLIC "-//W3C//DTD SVG 20010904//EN"
 "http://www.w3.org/TR/2001/REC-SVG-20010904/DTD/svg10.dtd">
<svg version="1.0" xmlns="http://www.w3.org/2000/svg"
 width="571.000000pt" height="847.000000pt" viewBox="0 0 571.000000 847.000000"
 preserveAspectRatio="xMidYMid meet">

<g transform="translate(0.000000,847.000000) scale(0.100000,-0.100000)"
fill="#000000" stroke="none">
<path d="M2353 8392 l-2293 -2 -2 -2623 c-2 -1442 -2 -3156 0 -3809 l2 -1188
2780 0 2780 0 0 3810 0 3810 -487 2 c-269 2 -1520 2 -2780 0z m3111 -178 c10
-27 7 -4912 -4 -4919 -5 -3 -1185 -6 -2621 -6 -2120 0 -2614 3 -2621 13 -9 14
-1 4905 8 4919 3 5 1154 9 2619 9 2373 0 2613 -1 2619 -16z m-1918 -5557 c15
-123 19 -140 38 -147 14 -6 -3 -9 -54 -9 -43 0 -69 3 -62 8 10 6 11 26 6 85
-4 42 -10 79 -14 81 -8 5 -100 -155 -100 -174 0 -23 -18 -1 -71 89 -32 54 -56
85 -60 77 -4 -6 -10 -44 -13 -83 -5 -55 -4 -73 6 -77 7 -3 -12 -5 -42 -6 -42
0 -50 2 -33 9 12 5 25 19 27 32 6 26 36 267 36 286 0 28 19 5 85 -103 38 -63
72 -115 75 -115 3 0 37 54 75 120 81 140 73 146 101 -73z m-3153 173 c-23 -9
-23 -13 -23 -175 0 -188 -8 -217 -65 -241 -58 -24 -71 -19 -41 17 26 30 26 32
26 209 0 160 -2 180 -17 189 -13 8 3 10 62 10 58 0 74 -3 58 -9z m552 -40 c18
0 21 -4 17 -30 -4 -30 -5 -30 -19 -10 -26 37 -114 19 -98 -21 3 -8 32 -31 65
-51 33 -20 65 -48 71 -62 13 -28 6 -68 -16 -90 -26 -26 -91 -41 -132 -30 -44
11 -58 32 -48 70 l7 29 16 -33 c17 -34 41 -46 88 -40 23 2 30 9 32 29 3 23 -6
32 -61 67 -35 22 -67 48 -71 57 -8 21 -8 59 0 80 10 24 63 46 98 40 16 -3 38
-5 51 -5z m345 -35 c0 -39 -1 -39 -13 -15 -10 20 -21 26 -55 28 l-42 3 0 -120
c0 -95 3 -123 16 -135 14 -15 9 -16 -53 -16 -51 1 -64 3 -50 11 15 9 17 26 17
134 l0 125 -32 0 c-37 0 -52 -8 -61 -30 -3 -8 -6 1 -6 20 l-1 35 140 0 140 0
0 -40z m420 34 l50 -11 0 -41 -1 -42 -15 27 c-18 35 -43 48 -88 48 -70 0 -116
-77 -96 -164 13 -58 48 -89 101 -88 48 1 78 24 95 75 l11 32 5 -39 c3 -32 0
-43 -20 -61 -64 -60 -217 -33 -257 45 -19 37 -19 113 -1 149 17 33 58 61 101
72 44 10 59 10 115 -2z m557 -276 c14 -11 4 -13 -58 -13 -46 0 -69 4 -60 9 9
6 11 18 7 35 -6 24 -11 26 -60 26 -46 0 -54 -3 -64 -24 -7 -17 -7 -27 1 -35 8
-8 -20 -11 -108 -11 -87 1 -115 3 -102 11 15 9 17 26 17 134 0 108 -2 125 -17
134 -14 8 -1 10 51 11 59 0 67 -2 53 -13 -15 -11 -17 -28 -15 -137 l3 -125 30
0 c33 0 43 16 129 205 l39 85 68 -140 c38 -77 77 -146 86 -152z m713 245 c0
-41 -1 -42 -13 -18 -10 20 -21 26 -55 28 l-42 3 0 -60 c0 -58 1 -61 25 -61 14
0 34 9 45 20 l20 20 -1 -52 c0 -42 -2 -48 -9 -30 -7 17 -17 22 -45 22 l-35 0
0 -55 c0 -54 0 -55 30 -55 30 0 80 18 80 30 0 3 7 15 16 26 15 19 15 19 10 -1
-2 -11 -7 -32 -10 -47 l-6 -28 -118 1 c-64 1 -109 3 -99 6 15 4 17 19 17 139
0 120 -2 134 -17 136 -10 1 29 5 87 8 58 3 108 7 113 8 4 1 7 -17 7 -40z m856
28 c3 -8 4 -27 2 -43 -4 -25 -5 -26 -13 -8 -12 28 -25 35 -67 35 l-38 0 0 -60
c0 -57 1 -60 25 -60 14 0 34 9 45 20 l20 20 0 -47 c-1 -38 -3 -44 -11 -30 -6
11 -22 17 -44 17 l-35 0 0 -55 c0 -54 0 -55 29 -55 45 0 78 16 96 47 l15 28
-6 -40 c-4 -22 -9 -43 -11 -47 -2 -5 -57 -7 -121 -7 -64 1 -109 3 -99 6 15 4
17 19 17 139 0 120 -2 134 -17 136 -10 1 29 5 87 8 58 3 109 7 113 8 4 1 10
-4 13 -12z m619 -6 c20 -8 25 -17 25 -45 0 -19 -4 -35 -10 -35 -5 0 -10 6 -10
14 0 8 -12 24 -26 35 -37 29 -95 28 -131 -3 -26 -23 -28 -29 -28 -100 0 -67 3
-78 25 -100 25 -24 42 -29 91 -27 36 2 58 21 73 66 l14 40 8 -39 c6 -36 4 -42
-22 -62 -62 -50 -176 -39 -235 22 -31 32 -34 40 -34 99 0 59 3 67 34 99 18 19
50 39 70 45 39 11 116 6 156 -9z m280 -122 c67 -137 71 -143 100 -143 l30 0 3
125 c2 109 0 126 -15 137 -14 11 2 13 90 13 88 0 115 -4 147 -20 101 -52 97
-213 -6 -256 -39 -16 -410 -21 -385 -5 12 8 13 14 3 35 -10 23 -18 26 -62 26
-44 0 -52 -3 -62 -26 -10 -21 -9 -27 3 -35 9 -6 -2 -9 -35 -9 -43 0 -47 2 -33
13 16 11 137 257 137 278 0 29 23 -7 85 -133z m740 114 c92 -54 89 -202 -5
-257 -48 -28 -142 -27 -190 1 -94 54 -107 168 -28 241 48 44 159 52 223 15z
m-4922 11 c-20 -8 -18 -212 3 -241 23 -33 86 -31 113 4 18 23 21 41 21 130 0
89 -2 103 -17 107 -10 3 5 5 32 6 28 0 45 -3 39 -7 -7 -4 -13 -49 -16 -112 -2
-68 -9 -113 -18 -128 -23 -35 -76 -55 -131 -49 -96 12 -119 49 -119 190 0 67
-4 97 -12 100 -7 3 16 5 52 5 36 0 59 -2 53 -5z m885 -4 c-16 -9 -18 -26 -18
-134 0 -108 2 -125 18 -134 12 -8 -2 -10 -58 -10 -41 0 -68 3 -60 6 26 10 30
26 30 138 0 112 -4 128 -30 138 -8 3 19 6 60 6 56 0 70 -2 58 -10z m1222 -9
c101 -52 97 -213 -6 -256 -41 -17 -260 -20 -231 -3 15 9 17 26 17 134 0 108
-2 125 -17 134 -13 8 12 10 90 11 89 0 115 -4 147 -20z m1459 -4 c31 -28 29
-88 -4 -115 l-26 -20 46 -59 c25 -33 51 -63 58 -65 6 -3 -8 -6 -33 -6 -26 -1
-55 6 -68 15 -18 12 -50 63 -80 125 -1 4 6 9 17 12 43 11 47 95 6 111 -43 16
-45 12 -45 -119 0 -108 2 -125 18 -134 13 -8 -1 -10 -53 -10 -52 0 -66 2 -52
10 15 9 17 26 17 134 0 107 -2 125 -17 135 -14 8 9 10 88 8 89 -3 111 -6 128
-22z m-3111 -728 c31 -54 61 -96 65 -95 5 1 37 52 71 112 35 61 68 109 72 108
5 -1 19 -73 31 -160 12 -87 22 -159 22 -160 1 -1 9 -4 19 -6 9 -3 -17 -5 -58
-6 -46 0 -70 3 -61 8 11 7 12 26 5 97 l-9 89 -35 -60 c-19 -33 -44 -80 -56
-104 l-21 -44 -59 98 c-65 109 -65 109 -77 -12 -6 -53 -4 -62 11 -66 9 -3 -8
-5 -38 -5 -30 0 -47 2 -38 5 22 6 24 12 43 173 9 74 18 142 21 150 7 19 16 7
92 -122z m532 50 c-1 -37 -2 -40 -12 -23 -16 29 -28 35 -70 35 l-38 0 0 -61 0
-62 36 6 c20 3 42 14 50 24 12 16 13 12 14 -37 0 -52 -1 -53 -16 -32 -11 15
-25 22 -50 22 l-34 0 0 -55 0 -55 33 0 c42 0 79 20 94 50 14 28 17 12 7 -39
l-6 -31 -117 0 c-84 1 -111 3 -98 11 15 9 17 26 17 135 0 109 -2 126 -17 132
-10 4 29 9 87 13 58 3 108 6 113 7 4 1 7 -17 7 -40z m586 28 c3 -8 4 -27 2
-43 -4 -25 -5 -26 -13 -8 -12 28 -25 35 -67 35 l-38 0 0 -60 c0 -57 1 -60 25
-60 14 0 34 9 45 20 l20 20 0 -47 c-1 -38 -3 -44 -11 -30 -6 11 -22 17 -44 17
l-35 0 0 -55 c0 -54 0 -55 29 -55 45 0 78 16 96 47 l15 28 -6 -40 c-4 -22 -9
-43 -11 -47 -7 -14 -305 -9 -332 5 -30 15 -98 137 -77 137 18 0 46 38 46 62 0
24 -35 58 -60 58 -19 0 -20 -7 -20 -125 0 -108 2 -125 18 -134 13 -8 -1 -10
-53 -10 -52 0 -66 2 -52 10 15 9 17 26 17 134 0 107 -2 125 -17 135 -14 8 10
10 89 8 95 -3 110 -6 129 -25 31 -31 28 -81 -6 -111 l-27 -22 29 -34 c15 -19
36 -46 46 -60 11 -16 27 -26 42 -26 l25 0 0 135 c0 121 -2 135 -17 137 -10 1
29 5 87 8 58 3 109 7 113 8 4 1 10 -4 13 -12z m284 3 l50 -11 0 -41 -1 -42
-15 27 c-18 35 -43 48 -88 48 -70 0 -116 -77 -96 -164 13 -58 48 -89 101 -88
48 1 78 24 95 75 l11 32 5 -39 c3 -32 0 -43 -20 -61 -64 -60 -217 -33 -257 45
-19 37 -19 113 -1 149 17 33 58 61 101 72 44 10 59 10 115 -2z m620 -133 c11
-75 20 -139 20 -141 0 -2 8 -6 18 -8 9 -3 -14 -5 -53 -6 -40 0 -64 3 -57 8 10
6 11 23 7 62 -12 98 -12 98 -85 -34 l-27 -48 -54 83 -54 82 -8 -68 c-7 -54 -6
-71 5 -77 8 -5 -6 -8 -37 -8 -27 1 -42 3 -33 6 21 5 22 10 44 163 15 109 20
129 27 119 2 -2 30 -42 62 -89 32 -47 61 -89 65 -93 4 -5 36 37 70 92 35 56
65 100 66 98 2 -2 13 -65 24 -141z m450 102 c0 -41 -1 -42 -13 -18 -10 20 -21
26 -55 28 l-42 3 0 -60 c0 -58 1 -61 25 -61 14 0 34 9 45 20 l20 20 -1 -52 c0
-42 -2 -48 -9 -30 -7 17 -17 22 -45 22 l-35 0 0 -55 c0 -54 0 -55 30 -55 30 0
80 18 80 30 0 3 7 15 16 26 15 19 15 19 10 -1 -2 -11 -7 -32 -10 -47 l-6 -28
-118 1 c-64 1 -109 3 -99 6 15 4 17 19 17 139 0 120 -2 134 -17 136 -10 1 29
5 87 8 58 3 108 7 113 8 4 1 7 -17 7 -40z m700 -3 c0 -39 -1 -39 -13 -15 -10
20 -21 26 -55 28 l-42 3 0 -120 c0 -95 3 -123 16 -135 14 -15 9 -16 -53 -16
-51 1 -64 3 -50 11 15 9 17 26 17 134 l0 125 -32 0 c-37 0 -52 -8 -61 -30 -3
-8 -6 1 -6 20 l-1 35 140 0 140 0 0 -40z m285 17 c92 -54 89 -202 -5 -257 -48
-28 -142 -27 -190 1 -94 54 -107 168 -28 241 48 44 159 52 223 15z m795 -14
c0 -41 -1 -42 -13 -18 -10 20 -21 26 -55 28 l-42 3 0 -60 c0 -58 1 -61 25 -61
14 0 34 9 45 20 l20 20 -1 -52 c0 -42 -2 -48 -9 -30 -7 17 -17 22 -45 22 l-35
0 0 -55 c0 -54 0 -55 30 -55 30 0 80 18 80 30 0 3 7 15 16 26 15 19 15 19 10
-1 -2 -11 -7 -32 -10 -47 l-6 -28 -118 1 c-64 1 -109 3 -99 6 15 4 17 19 17
139 0 120 -2 134 -17 136 -10 1 29 5 87 8 58 3 108 7 113 8 4 1 7 -17 7 -40z
m-4720 22 c-13 -8 -11 -17 15 -65 16 -30 32 -55 36 -55 12 0 61 101 55 115 -4
12 5 15 47 14 40 0 47 -2 30 -9 -12 -5 -42 -40 -67 -77 -42 -62 -46 -73 -46
-130 0 -50 3 -62 18 -66 9 -3 -17 -5 -58 -5 -41 0 -67 2 -57 5 14 4 17 16 17
64 0 55 -4 67 -45 130 -25 38 -55 74 -68 79 -16 6 0 9 58 9 55 1 75 -2 65 -9z
m2100 3 c-26 -10 -30 -26 -30 -138 0 -112 4 -128 30 -138 8 -3 -19 -6 -60 -6
-56 0 -70 2 -57 10 15 9 17 26 17 134 0 108 -2 125 -17 134 -13 8 1 10 57 10
41 0 68 -3 60 -6z m578 -4 c-16 -9 -18 -26 -18 -134 0 -108 2 -125 18 -134 12
-8 -2 -10 -58 -10 -41 0 -68 3 -60 6 26 10 30 26 30 138 0 112 -4 128 -30 138
-8 3 19 6 60 6 56 0 70 -2 58 -10z m453 -81 l104 -92 3 79 c2 66 0 82 -14 92
-15 11 -7 13 52 12 38 -1 61 -3 52 -6 -16 -4 -18 -20 -18 -150 l0 -145 -71 63
c-40 35 -89 79 -110 97 l-39 34 0 -85 c0 -73 3 -86 18 -90 9 -3 -14 -5 -52 -6
-59 -1 -67 1 -52 12 15 11 17 28 14 145 -2 73 0 132 3 132 3 0 53 -41 110 -92z
m1268 74 c54 -27 76 -65 76 -127 0 -62 -22 -100 -76 -127 -26 -14 -59 -18
-144 -18 -80 1 -105 3 -92 11 15 9 17 26 17 134 0 108 -2 125 -17 134 -13 8
12 10 92 11 85 0 118 -4 144 -18z m494 11 c-10 -3 -13 -40 -13 -134 l0 -129
30 0 c30 0 80 18 80 30 0 3 7 15 15 26 14 18 15 17 9 -11 -14 -70 -4 -65 -132
-64 -64 1 -109 3 -99 6 15 4 17 19 17 133 0 112 -2 130 -17 139 -14 8 0 10 52
10 39 0 64 -3 58 -6z m-1395 -603 c16 0 22 -6 22 -22 0 -13 -5 -30 -10 -38 -8
-13 -10 -13 -10 2 0 39 -92 51 -114 16 -15 -25 -1 -45 75 -99 70 -49 90 -80
82 -121 -13 -68 -105 -106 -188 -77 -32 11 -41 19 -43 41 -2 15 1 35 7 45 9
16 11 14 22 -15 13 -38 35 -52 83 -52 25 0 39 6 50 22 21 29 6 52 -60 95 -67
45 -94 78 -94 116 1 60 54 101 120 92 19 -3 45 -5 58 -5z m-2645 -9 c57 -22
76 -86 38 -128 -19 -20 -19 -21 4 -33 46 -25 59 -92 24 -129 -32 -34 -62 -41
-172 -40 -56 1 -95 3 -86 6 24 6 29 33 29 171 0 109 -2 124 -20 142 l-20 20
89 0 c49 0 101 -4 114 -9z m507 -73 c-1 -37 -2 -40 -12 -23 -16 29 -28 35 -70
35 l-38 0 0 -61 0 -62 36 6 c20 3 42 14 50 24 12 16 13 12 14 -37 0 -52 -1
-53 -16 -32 -11 15 -25 22 -50 22 l-34 0 0 -55 0 -55 33 0 c42 0 79 20 94 50
14 28 17 12 7 -39 l-6 -31 -117 0 c-84 1 -111 3 -98 11 15 9 17 26 17 135 0
109 -2 126 -17 132 -10 4 29 9 87 13 58 3 108 6 113 7 4 1 7 -17 7 -40z m219
-87 l71 -63 0 85 c0 73 -3 86 -17 90 -10 3 16 5 57 5 41 0 67 -2 58 -5 -15 -4
-18 -22 -20 -149 l-3 -144 -107 96 -108 95 0 -85 c0 -72 3 -85 18 -89 9 -3
-17 -5 -58 -5 -41 0 -67 2 -57 5 15 4 17 20 17 150 l0 145 39 -34 c21 -18 70
-62 110 -97z m427 115 c3 -8 4 -27 2 -43 -4 -25 -5 -26 -13 -8 -12 28 -25 35
-67 35 l-38 0 0 -60 c0 -57 1 -60 25 -60 14 0 34 9 45 20 l20 20 0 -47 c-1
-38 -3 -44 -11 -30 -6 11 -22 17 -44 17 l-35 0 0 -55 c0 -54 0 -55 29 -55 45
0 78 16 96 47 l15 28 -6 -40 c-4 -22 -9 -43 -11 -47 -2 -5 -57 -7 -121 -7 -64
1 -109 3 -99 6 15 4 17 19 17 139 0 120 -2 134 -17 136 -10 1 29 5 87 8 58 3
109 7 113 8 4 1 10 -4 13 -12z m217 4 c13 0 17 -8 16 -32 0 -33 0 -33 -16 -10
-25 36 -103 26 -103 -14 0 -6 31 -32 69 -57 75 -50 91 -79 69 -125 -26 -54
-137 -80 -183 -42 -17 14 -20 66 -5 75 6 3 10 -1 10 -9 0 -46 91 -76 121 -40
18 22 4 41 -65 87 -60 40 -80 72 -70 114 9 36 61 65 104 59 19 -3 43 -6 53 -6z
m345 -37 c2 -33 1 -36 -10 -18 -16 28 -28 35 -65 35 l-33 0 0 -125 c0 -108 2
-125 18 -134 13 -8 -1 -10 -53 -10 -52 0 -66 2 -52 10 15 9 17 26 17 134 l0
125 -32 0 c-38 0 -50 -7 -66 -35 -10 -17 -11 -15 -12 20 l0 40 142 -2 143 -2
3 -38z m279 -240 c14 -11 4 -13 -58 -13 -46 0 -69 4 -60 9 9 6 11 18 7 35 -6
24 -11 26 -60 26 -46 0 -54 -3 -64 -24 -7 -17 -7 -27 1 -35 8 -8 -2 -11 -38
-11 -41 1 -47 3 -31 11 16 10 58 91 128 249 l20 45 69 -140 c38 -77 77 -146
86 -152z m968 276 c124 -35 153 -195 47 -266 -99 -66 -258 -15 -277 89 -15 77
26 146 102 173 47 17 76 18 128 4z m418 -10 c11 -7 17 -22 17 -45 l0 -35 -34
35 c-27 29 -41 36 -70 36 -50 0 -75 -15 -92 -55 -27 -65 -9 -161 34 -184 12
-6 39 -11 62 -11 46 0 90 34 90 69 0 11 5 23 11 26 7 5 9 -7 7 -36 -4 -50 -34
-78 -94 -86 -91 -12 -185 45 -200 121 -20 111 70 194 196 180 30 -3 63 -10 73
-15z m377 12 c0 -6 30 -71 67 -145 62 -127 68 -136 95 -136 l28 0 0 130 c0
112 -2 130 -17 139 -14 8 0 10 52 10 39 0 64 -3 58 -6 -10 -3 -13 -40 -13
-134 l0 -129 30 0 c30 0 80 18 80 30 0 3 7 15 16 26 15 19 15 19 10 -1 -2 -11
-7 -32 -10 -47 l-6 -28 -188 0 c-117 0 -182 4 -173 9 12 8 13 14 3 35 -10 23
-18 26 -62 26 -44 0 -52 -3 -62 -26 -10 -21 -9 -27 3 -35 9 -5 -32 -8 -111 -8
-69 1 -117 3 -107 6 15 4 17 19 17 138 0 119 -2 134 -17 138 -10 3 16 5 57 5
41 0 67 -2 58 -5 -16 -4 -18 -19 -18 -139 l0 -135 32 3 c31 3 34 9 97 145 59
127 81 164 81 134z m-3510 -8 c-26 -10 -30 -26 -30 -138 0 -112 4 -128 30
-138 8 -3 -19 -6 -60 -6 -56 0 -70 2 -57 10 15 9 17 26 17 134 0 108 -2 125
-17 134 -13 8 1 10 57 10 41 0 68 -3 60 -6z m2001 -20 c31 -31 28 -81 -7 -111
l-27 -23 25 -27 c13 -15 32 -40 42 -55 9 -15 27 -32 39 -37 18 -7 13 -9 -23
-9 -25 0 -56 5 -69 12 -30 15 -98 137 -77 137 18 0 46 38 46 62 0 24 -35 58
-60 58 -19 0 -20 -7 -20 -125 0 -108 2 -125 18 -134 13 -8 -1 -10 -53 -10 -52
0 -66 2 -52 10 15 9 17 26 17 134 0 107 -2 125 -17 135 -14 8 10 10 89 8 95
-3 110 -6 129 -25z"/>
<path d="M4290 7590 c-89 -10 -220 -58 -220 -81 0 -3 -18 -11 -40 -18 -28 -8
-45 -21 -56 -43 -9 -17 -33 -47 -55 -67 -49 -45 -86 -144 -95 -251 -6 -64 -3
-87 17 -144 26 -78 52 -111 189 -240 177 -166 211 -201 248 -256 36 -54 37
-57 40 -165 4 -99 2 -116 -18 -159 -13 -26 -35 -55 -49 -64 -14 -9 -34 -27
-44 -39 -9 -12 -39 -29 -65 -39 -26 -10 -52 -22 -59 -27 -13 -9 -140 -4 -187
8 -31 8 -134 74 -153 96 -6 8 -14 25 -17 39 -4 14 -13 41 -21 60 -8 19 -21 61
-30 92 -12 45 -22 61 -43 72 -49 25 -47 35 -72 -238 -12 -123 -9 -142 23 -149
12 -3 67 -21 122 -40 89 -30 165 -47 245 -51 14 -1 73 1 133 5 103 7 111 9
210 59 83 41 118 66 175 123 67 67 73 78 97 156 20 68 25 106 25 196 0 79 -4
116 -14 131 -8 11 -19 37 -25 59 -7 27 -32 62 -78 110 -79 82 -183 175 -195
175 -5 0 -45 36 -89 80 -88 86 -109 129 -109 221 0 96 18 150 69 202 76 79 97
88 203 89 83 1 99 -1 146 -25 28 -15 52 -31 52 -36 0 -4 12 -25 26 -46 18 -27
28 -58 33 -107 7 -69 18 -88 52 -88 9 0 22 6 28 13 10 13 75 278 69 282 -2 1
-27 14 -56 28 -94 49 -133 59 -307 80 -22 3 -69 2 -105 -3z"/>
<path d="M1740 7568 c-39 -15 -322 -24 -452 -15 -66 5 -126 6 -134 3 -11 -4
-14 -17 -12 -43 l3 -38 61 -11 c73 -13 132 -46 140 -80 8 -32 -1 -93 -36 -239
-15 -66 -31 -147 -35 -180 -10 -98 -24 -165 -80 -400 -13 -55 -27 -125 -30
-155 -8 -77 -22 -144 -62 -300 -20 -74 -41 -164 -49 -200 -20 -98 -38 -141
-90 -214 -39 -55 -55 -68 -88 -77 -90 -24 -191 12 -203 73 -9 44 -66 88 -114
88 -22 0 -48 -4 -58 -10 -64 -34 -44 -193 31 -239 29 -18 219 -29 308 -18 37
4 86 19 115 34 53 28 177 120 184 137 2 5 20 28 41 50 83 91 184 325 211 486
7 41 16 83 21 92 5 10 13 37 18 60 4 24 21 88 35 143 15 55 31 134 36 175 5
41 12 82 15 90 6 15 26 94 44 175 5 22 20 83 34 135 14 52 30 129 35 170 10
79 21 114 43 140 23 26 86 70 102 70 8 0 18 5 21 10 3 6 17 10 30 10 18 0 26
7 31 24 12 48 2 61 -46 62 -25 1 -56 -3 -70 -8z"/>
<path d="M2001 7557 c-7 -9 -11 -26 -9 -39 2 -17 11 -24 39 -29 59 -9 127 -55
145 -97 17 -41 19 -31 -39 -252 -19 -74 -38 -160 -42 -190 -3 -30 -16 -89 -27
-130 -11 -41 -24 -91 -29 -110 -5 -19 -16 -64 -26 -100 -11 -45 -18 -116 -20
-231 -4 -159 -3 -169 21 -220 13 -30 36 -66 50 -81 14 -15 26 -31 26 -36 0
-17 53 -62 79 -69 14 -3 37 -13 51 -22 35 -23 83 -40 180 -63 69 -16 109 -19
215 -16 114 4 138 8 200 33 39 15 86 39 105 52 19 12 42 23 51 23 9 0 30 15
46 33 15 17 52 52 81 76 28 24 52 49 52 54 0 5 15 28 34 51 44 54 62 91 80
162 8 32 23 84 34 114 35 94 70 223 76 277 4 29 18 86 31 128 14 42 25 82 25
90 0 9 4 23 9 33 17 32 53 167 62 227 10 81 39 142 86 188 32 31 55 42 114 56
l74 18 0 34 0 34 -70 -2 c-247 -5 -299 -6 -383 -3 -51 1 -94 1 -97 -1 -2 -2
-6 -16 -10 -30 -7 -27 -6 -28 82 -64 23 -10 52 -28 64 -41 20 -22 22 -30 16
-116 -3 -51 -11 -106 -17 -123 -7 -16 -23 -73 -37 -125 -13 -52 -31 -120 -38
-150 -8 -30 -15 -68 -15 -84 0 -36 -44 -197 -76 -282 -13 -33 -26 -79 -28
-101 -7 -55 -18 -81 -61 -144 -103 -155 -116 -167 -228 -225 -122 -63 -245
-88 -321 -65 -17 5 -51 15 -75 22 -24 7 -66 29 -94 48 -42 31 -55 48 -84 114
-31 72 -34 86 -34 175 1 61 9 128 22 182 11 47 24 119 30 160 5 41 13 86 18
100 6 14 12 41 15 60 6 40 20 96 47 190 10 36 25 104 34 152 22 126 42 170 99
217 46 37 75 49 176 70 32 6 35 10 32 36 -2 16 -8 33 -14 36 -6 4 -45 5 -87 3
-142 -9 -486 -9 -556 0 -59 7 -73 6 -84 -7z"/>
<path d="M2385 5410 c-99 -3 -185 -8 -191 -12 -13 -9 -83 -175 -110 -263 -10
-33 -35 -94 -56 -136 -20 -41 -41 -93 -46 -115 -5 -21 -34 -93 -65 -159 -30
-66 -63 -145 -72 -175 -9 -30 -25 -66 -36 -80 l-19 -25 -20 25 c-11 14 -22 36
-25 50 -11 50 -28 96 -55 150 -15 30 -40 96 -55 145 -16 50 -34 97 -40 105 -6
8 -17 31 -24 50 -7 19 -21 51 -31 70 -10 19 -24 58 -31 85 -6 28 -25 78 -41
112 -15 34 -35 81 -43 104 -26 72 -15 69 -252 69 l-214 0 3 -32 c3 -32 5 -33
62 -40 32 -4 69 -14 82 -23 45 -29 47 -46 40 -265 -3 -113 -8 -304 -11 -425
-8 -441 -19 -479 -139 -487 -33 -2 -53 -9 -60 -20 -23 -38 3 -43 229 -44 198
0 215 1 221 18 8 27 -1 35 -53 43 -65 9 -103 48 -104 107 -3 95 3 475 10 670
7 204 16 254 37 206 28 -64 68 -148 89 -188 12 -25 26 -60 30 -79 7 -33 23
-72 76 -189 16 -35 29 -67 29 -72 0 -17 34 -116 45 -130 6 -8 17 -31 24 -50 7
-19 23 -55 36 -80 12 -25 26 -63 30 -85 11 -64 73 -185 94 -185 18 0 51 39 51
59 0 6 16 43 35 84 19 41 35 80 35 88 0 8 16 53 36 99 92 217 104 246 104 266
0 12 7 27 15 34 8 7 15 17 15 22 0 5 15 46 34 91 18 45 42 107 52 137 10 30
30 79 46 109 15 29 28 59 28 66 0 7 6 18 14 24 23 19 28 -11 37 -239 4 -118
13 -264 18 -325 6 -60 11 -167 11 -236 0 -115 -2 -129 -23 -160 -19 -29 -31
-35 -82 -44 -54 -9 -60 -13 -63 -36 -3 -23 1 -27 33 -33 19 -4 41 -3 48 1 6 4
120 8 252 8 226 0 240 1 243 19 5 25 -9 36 -54 42 -81 9 -92 19 -123 112 -27
80 -44 345 -45 689 -1 401 -6 380 84 394 60 9 80 23 80 54 0 21 -21 38 -38 33
-4 -1 -88 -5 -187 -8z"/>
<path d="M2803 5403 c-3 -7 -3 -17 -1 -24 4 -13 73 -39 105 -39 12 0 31 -12
42 -26 21 -26 21 -36 21 -543 0 -311 -4 -530 -10 -552 -14 -49 -46 -76 -105
-86 -44 -8 -50 -11 -50 -33 l0 -25 190 -5 c105 -3 320 -4 479 -4 287 1 290 2
308 24 10 12 18 32 18 45 0 12 11 52 25 88 46 122 44 197 -6 197 -18 0 -99
-111 -99 -136 0 -7 -25 -35 -57 -63 -66 -59 -91 -65 -265 -66 -116 0 -117 0
-148 30 -46 44 -51 78 -48 310 l3 210 141 3 c163 3 173 -1 202 -82 9 -27 25
-54 34 -60 36 -22 41 4 42 196 l1 183 -27 3 c-30 4 -34 -2 -59 -86 -8 -29 -19
-44 -33 -48 -12 -2 -84 -3 -161 -2 l-140 3 -3 249 c-2 193 1 251 10 258 22 13
239 9 288 -6 104 -33 114 -40 148 -113 17 -37 34 -80 37 -95 8 -32 35 -37 60
-11 13 13 16 27 11 62 -3 25 -6 90 -7 144 -1 64 -5 100 -13 102 -6 2 -217 5
-470 7 -353 2 -460 0 -463 -9z"/>
<path d="M3975 5411 c-9 -9 -5 -47 7 -59 7 -7 28 -12 48 -12 40 -1 58 -12 86
-55 18 -28 19 -55 21 -545 3 -517 0 -563 -33 -591 -8 -6 -40 -14 -72 -18 -52
-5 -57 -8 -57 -30 0 -33 53 -48 108 -31 44 13 383 12 409 -1 21 -11 44 -3 53
19 8 23 -29 52 -67 52 -49 0 -85 26 -108 76 -18 42 -20 67 -20 248 0 219 2
226 54 226 25 0 43 -13 93 -66 35 -36 63 -72 63 -80 0 -9 9 -28 19 -42 19 -27
88 -162 109 -214 6 -16 29 -47 50 -70 21 -24 46 -55 55 -70 35 -56 136 -88
278 -88 78 0 101 4 119 18 30 24 17 50 -28 58 -61 10 -66 12 -129 67 -57 48
-133 137 -133 155 0 4 -19 39 -43 77 -23 39 -60 106 -80 150 -21 44 -49 94
-63 112 -13 17 -24 35 -24 40 0 4 42 28 92 53 78 38 96 52 119 90 47 76 60
112 64 179 8 157 -88 293 -228 323 -29 5 -61 15 -72 21 -19 10 -680 18 -690 8z
m627 -117 c61 -31 68 -38 92 -90 37 -81 38 -198 3 -275 -37 -80 -70 -107 -157
-125 -40 -8 -98 -14 -129 -12 l-56 3 -3 230 c-3 255 -1 265 58 295 47 25 106
17 192 -26z"/>
<path d="M2076 2650 c-9 -22 -16 -43 -16 -45 0 -3 16 -5 35 -5 19 0 35 2 35 4
0 2 -8 23 -19 46 l-18 41 -17 -41z"/>
<path d="M4940 2645 l0 -125 35 0 c78 0 110 39 110 133 -1 54 -4 62 -33 88
-24 22 -42 29 -72 29 l-40 0 0 -125z"/>
<path d="M4620 2641 l-20 -41 39 0 40 0 -16 38 c-8 20 -17 39 -18 40 -2 2 -13
-14 -25 -37z"/>
<path d="M5324 2755 c-52 -36 -60 -164 -13 -210 41 -40 102 -37 128 6 39 65
34 157 -11 199 -26 24 -75 26 -104 5z"/>
<path d="M2510 2645 l0 -125 35 0 c78 0 110 39 110 133 -1 54 -4 62 -33 88
-24 22 -42 29 -72 29 l-40 0 0 -125z"/>
<path d="M4314 2085 c-52 -36 -60 -164 -13 -210 41 -40 102 -37 128 6 39 65
34 157 -11 199 -26 24 -75 26 -104 5z"/>
<path d="M4790 1975 l0 -125 35 0 c74 0 115 45 115 125 0 80 -41 125 -115 125
l-35 0 0 -125z"/>
<path d="M1300 1338 l0 -148 28 6 c43 10 62 33 62 74 0 39 -24 70 -53 70 -24
0 -21 14 6 25 16 7 23 20 25 48 4 44 -8 63 -43 70 l-25 4 0 -149z"/>
<path d="M3196 1320 c-9 -22 -16 -43 -16 -45 0 -3 16 -5 35 -5 19 0 35 2 35 4
0 2 -8 23 -19 46 l-18 41 -17 -41z"/>
<path d="M4235 1416 c-27 -27 -40 -81 -31 -134 20 -128 162 -128 182 0 15 89
-25 158 -91 158 -25 0 -43 -8 -60 -24z"/>
<path d="M5097 1310 l-15 -40 34 0 c19 0 34 3 34 7 0 14 -24 73 -30 73 -4 0
-14 -18 -23 -40z"/>
<path d="M4370 483 c-14 -7 -50 -13 -80 -13 -30 0 -60 -4 -67 -8 -9 -6 -53
-152 -53 -179 0 -4 24 -6 54 -5 67 5 96 -18 96 -73 0 -48 -41 -92 -110 -115
-51 -17 -53 -19 -27 -25 68 -17 183 29 212 85 17 33 19 87 5 124 -15 41 -66
66 -132 66 -60 0 -62 1 -49 35 6 16 22 22 86 30 78 10 79 10 87 43 12 45 8 51
-22 35z"/>
<path d="M5063 489 c-6 -6 -45 -14 -86 -18 -42 -4 -80 -10 -84 -15 -8 -7 -42
-140 -43 -166 0 -12 11 -14 54 -12 44 3 58 0 75 -17 27 -27 27 -74 1 -111 -22
-31 -93 -70 -131 -71 -22 0 -23 -1 -4 -9 89 -38 230 37 242 129 12 89 -46 145
-142 139 -56 -3 -59 -1 -49 39 5 18 15 22 85 28 l79 7 11 40 c11 43 9 54 -8
37z"/>
<path d="M255 480 c-66 -3 -114 -7 -107 -8 9 -2 12 -46 12 -182 0 -160 -2
-180 -17 -189 -14 -8 1 -10 56 -11 58 0 72 3 63 12 -7 7 -12 43 -12 90 l0 78
48 0 c26 0 53 -5 60 -12 9 -9 12 -3 12 27 0 30 -3 36 -12 27 -7 -7 -34 -12
-60 -12 l-48 0 0 80 0 80 57 0 c38 0 62 -5 75 -17 17 -15 18 -14 18 15 0 20
-5 31 -12 30 -7 -1 -67 -5 -133 -8z"/>
<path d="M560 463 c-69 -35 -101 -88 -102 -167 -1 -73 17 -119 59 -156 48 -43
76 -52 159 -52 51 0 81 5 110 20 77 40 104 87 104 184 0 120 -71 188 -204 195
-63 4 -77 1 -126 -24z m176 -12 c44 -27 66 -80 66 -162 0 -116 -49 -182 -132
-181 -90 1 -144 106 -120 232 21 112 103 161 186 111z"/>
<path d="M970 303 c0 -134 -4 -193 -12 -201 -9 -9 3 -12 56 -12 61 0 66 1 52
16 -13 12 -16 39 -16 131 l0 115 68 -60 c37 -33 85 -79 107 -102 22 -23 56
-54 75 -70 l35 -28 -3 173 c-3 117 -1 179 7 194 11 20 10 21 -46 21 -44 0 -54
-3 -45 -12 13 -13 18 -238 6 -238 -4 0 -69 59 -145 131 l-139 131 0 -189z"/>
<path d="M2005 483 l-100 -4 3 -182 c3 -163 1 -183 -14 -194 -15 -11 7 -13
123 -13 l141 0 11 44 c15 62 14 66 -9 29 -20 -34 -66 -53 -127 -53 l-33 0 0
80 0 80 48 0 c26 0 53 -5 60 -12 9 -9 12 -3 12 27 0 30 -3 36 -12 27 -7 -7
-34 -12 -60 -12 l-48 0 0 80 0 80 59 0 c51 0 62 -3 75 -22 16 -22 16 -22 16
15 0 32 -3 37 -22 35 -13 -1 -68 -4 -123 -5z"/>
<path d="M2370 481 c-86 -28 -135 -83 -146 -161 -18 -134 75 -232 221 -232
110 -1 171 43 156 112 l-8 35 -7 -30 c-24 -103 -161 -136 -230 -54 -72 85 -53
259 34 304 63 32 145 11 180 -48 l20 -32 0 42 c0 33 -5 45 -21 54 -27 14 -166
21 -199 10z"/>
<path d="M3060 450 c0 -34 0 -34 16 -12 12 18 25 22 70 22 l54 0 0 -169 c0
-141 -3 -172 -16 -185 -14 -15 -9 -16 58 -16 54 1 69 3 56 11 -16 9 -18 29
-18 184 l0 175 48 0 c52 0 63 -5 80 -35 10 -17 11 -15 12 20 l0 40 -180 0
-180 0 0 -35z"/>
<path d="M3675 475 c-16 -8 -43 -14 -60 -15 l-30 0 25 -13 c25 -13 25 -13 28
-172 2 -142 1 -161 -15 -172 -14 -11 -6 -13 52 -13 54 0 66 3 57 12 -8 8 -12
67 -12 200 0 103 -3 188 -7 187 -5 0 -21 -7 -38 -14z"/>
<path d="M3860 476 c-41 -15 -46 -31 -26 -77 l14 -34 1 28 c2 67 90 102 130
51 44 -56 14 -140 -94 -268 -36 -41 -65 -78 -65 -81 0 -3 58 -5 130 -5 l129 0
16 52 c20 68 19 71 -10 43 -21 -22 -33 -25 -97 -25 l-73 0 35 27 c155 119 180
232 63 292 -28 14 -109 13 -153 -3z"/>
<path d="M4560 472 c-100 -53 -119 -262 -31 -346 50 -48 145 -53 193 -9 63 57
82 202 36 290 -39 77 -123 104 -198 65z m114 -35 c19 -25 21 -42 21 -145 0
-126 -14 -174 -54 -185 -52 -13 -81 49 -81 179 0 102 7 137 32 164 25 27 55
22 82 -13z"/>
<path d="M5235 475 c-16 -8 -43 -14 -60 -15 l-30 0 25 -13 c25 -13 25 -13 28
-172 2 -142 1 -161 -15 -172 -14 -11 -6 -13 52 -13 54 0 66 3 57 12 -8 8 -12
67 -12 200 0 103 -3 188 -7 187 -5 0 -21 -7 -38 -14z"/>
<path d="M5442 470 c-57 -35 -65 -99 -21 -162 20 -28 21 -31 5 -40 -58 -32
-73 -97 -33 -142 38 -45 147 -53 214 -17 72 38 70 137 -4 182 l-33 21 36 34
c31 28 35 38 29 61 -9 37 -24 53 -62 70 -46 19 -93 16 -131 -7z m95 -8 c34
-22 33 -132 -1 -132 -23 0 -76 57 -76 81 0 42 44 72 77 51z m26 -250 c10 -9
17 -29 17 -49 0 -29 -5 -36 -32 -47 -64 -27 -119 23 -104 96 11 53 22 60 64
36 20 -11 45 -27 55 -36z"/>
<path d="M1448 468 c8 -8 12 -63 12 -179 0 -143 -2 -170 -17 -184 -15 -16 -8
-17 118 -14 125 4 137 6 181 31 97 58 121 214 45 297 -44 48 -92 61 -226 61
-97 0 -122 -3 -113 -12z m228 -27 c43 -26 64 -76 64 -153 0 -111 -44 -165
-143 -175 l-57 -6 0 177 0 176 53 0 c33 0 63 -7 83 -19z"/>
<path d="M2668 462 c10 -10 42 -57 70 -104 51 -84 52 -87 52 -166 0 -67 -3
-83 -17 -91 -14 -8 1 -10 55 -11 67 0 72 1 58 16 -12 11 -16 35 -16 88 0 70 2
74 56 162 30 49 64 97 76 107 20 17 19 17 -22 17 -29 0 -40 -4 -37 -12 4 -12
-50 -123 -76 -156 -8 -10 -21 6 -53 64 -23 42 -40 83 -37 91 4 10 -10 13 -61
13 -64 0 -65 -1 -48 -18z"/>
</g>
</svg>
